<?xml version="1.0"?>
<svg xmlns="http://www.w3.org/2000/svg" xmlns:xlink="http://www.w3.org/1999/xlink" version="1.1" id="Capa_1" x="0px" y="0px" viewBox="0 0 512 512" style="enable-background:new 0 0 512 512;" xml:space="preserve" width="512px" height="512px" class=""><g><g>
	<g>
		<path d="M436.363,464.936h-61.265l-14.653-13.515c-3.07-3.13-4.759-7.252-4.759-11.621V139.767    C355.686,62.699,292.987,0,215.919,0S76.153,62.699,76.153,139.767v55.17c-4.981,5.58-8.016,12.932-8.016,20.982v159.482    c-14.822,14.472-24.048,34.651-24.048,56.953c0,43.917,35.729,79.646,79.645,79.646c12.469,0,24.274-2.887,34.793-8.017h61.401    c21.816,0,39.564-17.749,39.564-39.564v-96.193c0-23.093-7.766-63.646-20.927-100.688l23.419-19.715    c3.171-2.669,5.112-6.413,5.467-10.543c0.096-1.115,0.063-2.221-0.075-3.305c15.217-14.231,24.18-34.585,24.18-55.396v-38.812    c0-41.707-33.931-75.638-75.637-75.638s-75.637,33.931-75.637,75.638v44.604h-17.064v-44.604    c0-51.116,41.586-92.702,92.702-92.702s92.702,41.586,92.702,92.702V439.8c0,16.985,6.616,32.96,18.632,44.984l13.432,13.43v6.286    c0,4.143,3.358,7.5,7.5,7.5h112.226c4.142,0,7.5-3.357,7.5-7.5v-8.017C467.911,479.088,453.759,464.936,436.363,464.936z     M123.734,497c-35.645,0-64.645-29-64.645-64.646s29-64.645,64.645-64.645c35.645,0,64.645,28.999,64.645,64.645    S159.379,497,123.734,497z M115.202,353.173v-93.165c0-2.495,2.029-4.524,4.524-4.524h26.502c3.302,0,6.232,1.815,7.646,4.737    c10.273,21.224,26.076,62.269,32.068,122.485c-14.607-18.265-37.057-29.996-62.209-29.996    C120.851,352.71,118.005,352.873,115.202,353.173z M244.492,464.419c0,13.545-11.02,24.564-24.565,24.564h-40.256    c7.222-7.135,13.087-15.636,17.178-25.08h47.643V464.419z M252.324,236.347l-19.413,16.343    c-4.514-11.049-9.515-21.486-14.931-30.694l13.029-10.968c0.04-0.034,0.157-0.14,0.376-0.119c0.213,0.019,0.317,0.142,0.351,0.182    l20.65,24.529c0.034,0.04,0.138,0.164,0.12,0.377C252.488,236.209,252.364,236.313,252.324,236.347z M209.691,209.367    c-0.356-0.481-0.712-0.962-1.071-1.432c-5.67-7.412-13.007-13.32-21.271-17.369v-50.801c0-15.755,12.818-28.573,28.573-28.573    s28.572,12.818,28.572,28.573v38.813h-0.002c0,6.843-2.501,13.455-6.945,18.631c-1.529-0.666-3.167-1.1-4.877-1.247    c-4.131-0.362-8.151,0.92-11.32,3.59L209.691,209.367z M155.281,139.767c0-33.436,27.202-60.638,60.637-60.638    s60.637,27.202,60.637,60.638v38.812c0,15.603-6.297,30.888-17.103,42.145l-11.054-13.13c7.095-7.965,11.092-18.303,11.092-29.014    v-38.812c0-24.026-19.546-43.573-43.572-43.573s-43.573,19.547-43.573,43.573v45.762c-3.793-0.748-7.669-1.157-11.585-1.157    h-5.479V139.767z M160.762,199.371c14.039,0,27.475,6.608,35.942,17.679c27.721,36.242,47.788,115.458,47.788,151.176v80.677    h-42.854c1.133-5.341,1.741-10.875,1.741-16.549c0-86.188-19.579-144.733-36.003-178.669c-3.882-8.02-12.183-13.202-21.148-13.202    h-26.502c-10.766,0-19.524,8.759-19.524,19.524v96.253c-6.026,1.867-11.741,4.442-17.064,7.61V215.919    c0-9.124,7.423-16.548,16.548-16.548H160.762z M215.919,32.064c-59.387,0-107.702,48.315-107.702,107.702v44.604h-8.532    c-2.957,0-5.816,0.418-8.532,1.182v-45.787C91.153,70.97,147.122,15,215.919,15s124.766,55.97,124.766,124.767v52.62h-17.064    v-52.62C323.621,80.38,275.306,32.064,215.919,32.064z M340.685,207.387v201.436h-17.064V207.387H340.685z M344.734,481.05    l-6.872-6.872c-9.184-9.188-14.241-21.398-14.241-34.378v-15.978h17.064V439.8c0,8.416,3.281,16.341,9.239,22.314    c0.074,0.074,0.149,0.146,0.226,0.217l6.997,6.453C351.949,471.627,347.64,475.892,344.734,481.05z M355.685,497v-0.517    c0-9.125,7.423-16.548,16.548-16.548h64.129c9.125,0,16.548,7.423,16.548,16.548V497H355.685z" data-original="#000000" class="active-path" data-old_color="#000000" fill="#374785"/>
	</g>
</g><g>
	<g>
		<path d="M141.077,388.085c-17.625-6.895-37.639-2.725-50.989,10.625c-13.349,13.35-17.52,33.363-10.625,50.989    c1.158,2.96,3.989,4.77,6.987,4.77c0.909,0,1.833-0.166,2.73-0.518c3.858-1.509,5.762-5.859,4.253-9.717    c-4.724-12.076-1.873-25.782,7.262-34.917s22.842-11.986,34.918-7.263c3.857,1.511,8.207-0.395,9.717-4.252    C146.84,393.944,144.934,389.594,141.077,388.085z" data-original="#000000" class="active-path" data-old_color="#000000" fill="#374785"/>
	</g>
</g><g>
	<g>
		<path d="M168.004,415.011c-1.509-3.857-5.86-5.762-9.717-4.252c-3.858,1.509-5.762,5.859-4.253,9.717    c4.724,12.076,1.873,25.782-7.262,34.917c-9.136,9.136-22.843,11.982-34.918,7.263c-3.858-1.511-8.208,0.395-9.717,4.252    c-1.509,3.858,0.396,8.208,4.253,9.717c5.646,2.209,11.535,3.281,17.374,3.281c12.389,0,24.542-4.833,33.615-13.905    C170.728,452.65,174.898,432.637,168.004,415.011z" data-original="#000000" class="active-path" data-old_color="#000000" fill="#374785"/>
	</g>
</g></g> </svg>
